<svg id="Capa_1" enable-background="new 0 0 512 512" height="512" viewBox="0 0 512 512" width="512" xmlns="http://www.w3.org/2000/svg"><g><g><g><path d="m239.35 320.52v8.325c0 9.181 7.47 16.65 16.65 16.65 9.181 0 16.65-7.47 16.65-16.65v-70.764c0-9.196 7.455-16.65 16.65-16.65s16.65 7.455 16.65 16.65v70.764c0 27.543-22.408 49.951-49.951 49.951s-49.951-22.408-49.951-49.951v-8.325c0-9.196 7.455-16.65 16.65-16.65s16.652 7.455 16.652 16.65zm-33.301-137.366v70.764c0 9.196 7.455 16.65 16.65 16.65s16.65-7.455 16.65-16.65v-70.764c0-9.181 7.47-16.65 16.65-16.65 9.181 0 16.65 7.47 16.65 16.65v8.325c0 9.196 7.455 16.65 16.65 16.65s16.65-7.455 16.65-16.65v-8.325c0-27.543-22.408-49.951-49.951-49.951s-49.949 22.408-49.949 49.951zm11.065-109.782c-45.171 16.261-77.667 60.002-77.667 111.042v38.286c0 9.464 7.885 17.077 17.447 16.632 8.958-.417 15.854-8.131 15.854-17.099v-37.818c0-36.609 23.205-67.981 55.467-79.651 6.647-2.404 11.135-8.634 11.135-15.702 0-11.507-11.411-19.587-22.236-15.69zm120.993 27.061c-12.475-12.388-27.226-21.598-43.316-27.255-10.815-3.802-22.141 4.268-22.141 15.732 0 7.114 4.545 13.369 11.25 15.748 11.415 4.051 21.886 10.613 30.751 19.407 15.86 15.745 24.601 36.735 24.601 59.088v46.985c0 21.125 8.232 40.981 23.165 55.925l48.317 48.307c3.247 3.257 7.513 4.881 11.77 4.881s8.523-1.623 11.77-4.881c6.504-6.494 6.504-17.046 0-23.54l-48.307-48.317c-8.648-8.648-13.414-20.147-13.414-32.375v-46.985c0-31.291-12.238-60.668-34.446-82.72zm16.638 244.787-.06-.015c-8.485-2.204-17.112 2.597-19.971 10.884-4.094 11.869-10.885 22.734-20.063 31.845-15.87 15.745-36.922 24.32-59.286 24.164-45.56-.344-82.617-38.244-82.617-84.511v-38.286c0-9.464-7.885-17.077-17.447-16.632-8.958.417-15.854 8.131-15.854 17.099v37.818c0 64.489 51.887 117.333 115.668 117.812h.895c30.97 0 60.098-11.999 82.097-33.832 12.983-12.889 22.556-28.282 28.266-45.092 3.083-9.075-2.351-18.845-11.628-21.254zm-265.249-5.968c-9.196 0-16.65 7.455-16.65 16.65v72.846c0 9.196 7.455 16.65 16.65 16.65s16.65-7.455 16.65-16.65v-72.846c0-9.195-7.454-16.65-16.65-16.65zm166.504-339.252c-100.992 0-183.154 82.163-183.154 183.154v106.146c0 9.196 7.455 16.65 16.65 16.65s16.65-7.455 16.65-16.65v-106.146c0-82.63 67.224-149.854 149.854-149.854s149.854 67.224 149.854 149.854v41.626c0 9.196 7.455 16.65 16.65 16.65 9.196 0 16.65-7.455 16.65-16.65v-41.626c0-100.991-82.162-183.154-183.154-183.154zm166.504 372.553c-9.196 0-16.65 7.455-16.65 16.65v39.545c0 9.196 7.455 16.65 16.65 16.65 9.196 0 16.65-7.455 16.65-16.65v-39.545c0-9.195-7.454-16.65-16.65-16.65zm-87.842 83.868c-23.582 14.575-50.783 22.278-78.662 22.278s-55.079-7.704-78.662-22.278c-7.821-4.834-18.082-2.413-22.917 5.41-4.834 7.822-2.413 18.083 5.41 22.917 28.847 17.828 62.102 27.252 96.169 27.252s67.322-9.424 96.169-27.252c7.823-4.834 10.244-15.095 5.41-22.917-4.835-7.823-15.095-10.245-22.917-5.41z" fill="#e175a5"/><g fill="#de5791"><path d="m354.745 345.22-.06-.015c-8.485-2.204-17.112 2.597-19.971 10.884-4.094 11.869-10.885 22.734-20.063 31.845-13.097 12.994-29.728 21.089-47.709 23.438-8.642 11.601-17.584 22.597-26.757 32.942 4.889.677 9.872 1.046 14.93 1.084h.895c30.97 0 60.098-11.999 82.097-33.832 12.983-12.889 22.556-28.282 28.266-45.092 3.083-9.075-2.351-18.845-11.628-21.254z"/><path d="m334.662 456.421c-23.582 14.575-50.783 22.278-78.662 22.278-14.653 0-29.112-2.149-42.963-6.284-9.503 9.001-19.164 17.32-28.917 24.902 22.598 9.642 47.018 14.683 71.88 14.683 34.067 0 67.322-9.424 96.169-27.252 7.823-4.834 10.244-15.095 5.41-22.917-4.835-7.823-15.095-10.245-22.917-5.41z"/><path d="m362.417 286.064 48.317 48.307c3.247 3.257 7.513 4.881 11.77 4.881s8.523-1.623 11.77-4.881c6.504-6.494 6.504-17.046 0-23.54l-48.307-48.317c-8.648-8.648-13.414-20.147-13.414-32.375v-46.985c0-8.92-.998-17.684-2.934-26.167-3.278 33.37-11.152 68.898-23.669 105.045 3.9 8.845 9.428 16.989 16.467 24.032z"/><path d="m422.504 372.553c-9.196 0-16.65 7.455-16.65 16.65v39.545c0 9.196 7.455 16.65 16.65 16.65 9.196 0 16.65-7.455 16.65-16.65v-39.545c0-9.195-7.454-16.65-16.65-16.65z"/><path d="m354.542 28.829c7.1 16.707 11.973 35.595 14.581 56.148 22.869 26.316 36.731 60.658 36.731 98.177v41.626c0 9.196 7.455 16.65 16.65 16.65 9.196 0 16.65-7.455 16.65-16.65v-41.626c0-64.742-33.766-121.745-84.612-154.325z"/></g></g><path d="m420.423 10.302v12.697c0 5.69 4.612 10.302 10.302 10.302h47.975v47.975c0 5.69 4.612 10.302 10.302 10.302h12.697c5.69 0 10.302-4.612 10.302-10.302v-70.974c-.001-5.69-4.613-10.302-10.303-10.302h-70.974c-5.689 0-10.301 4.612-10.301 10.302z" fill="#3a67c1"/><path d="m91.577 10.302v12.697c0 5.69-4.612 10.302-10.302 10.302h-47.974v47.975c0 5.69-4.612 10.302-10.302 10.302h-12.697c-5.69-.001-10.302-4.613-10.302-10.303v-70.974c0-5.689 4.612-10.301 10.302-10.301h70.974c5.689 0 10.301 4.612 10.301 10.302z" fill="#4172ca"/></g><path d="m420.423 501.698v-12.697c0-5.69 4.612-10.302 10.302-10.302h47.975v-47.975c0-5.69 4.612-10.302 10.302-10.302h12.697c5.69 0 10.302 4.612 10.302 10.302v70.974c0 5.69-4.612 10.302-10.302 10.302h-70.974c-5.69 0-10.302-4.612-10.302-10.302z" fill="#3a67c1"/><path d="m91.577 501.698v-12.697c0-5.69-4.612-10.302-10.302-10.302h-47.974v-47.975c0-5.69-4.612-10.302-10.302-10.302h-12.697c-5.69.001-10.302 4.613-10.302 10.303v70.974c0 5.689 4.612 10.301 10.302 10.301h70.974c5.689 0 10.301-4.612 10.301-10.302z" fill="#4172ca"/></g></svg>